<mxfile><diagram name="Flow 2"><mxGraphModel><root><mxCell id="0"/><mxCell id="1" parent="0"/><mxCell id="t" value="User Flow 2: Submit New Art Entry\nPersona: Uncle Tommy documents community mural" style="text;fontSize=14;fontStyle=1" vertex="1" parent="1"><mxGeometry x="300" y="20" width="600" height="40"/></mxCell><mxCell id="s1" value="1. Login" style="rounded=1;fillColor=#e3f2fd" vertex="1" parent="1"><mxGeometry x="80" y="100" width="120" height="60"/></mxCell><mxCell id="s2" value="2. Click Submit\nNew Art" style="rounded=1;fillColor=#e3f2fd" vertex="1" parent="1"><mxGeometry x="240" y="100" width="120" height="60"/></mxCell><mxCell id="s3" value="3. Step 1:\nArt Details" style="rounded=1;fillColor=#e3f2fd" vertex="1" parent="1"><mxGeometry x="400" y="100" width="120" height="60"/></mxCell><mxCell id="s4" value="4. Step 2:\nLocation+Map" style="rounded=1;fillColor=#e3f2fd" vertex="1" parent="1"><mxGeometry x="560" y="100" width="120" height="60"/></mxCell><mxCell id="s5" value="5. Step 3:\nUpload Images" style="rounded=1;fillColor=#e3f2fd" vertex="1" parent="1"><mxGeometry x="720" y="100" width="120" height="60"/></mxCell><mxCell id="s6" value="6. Step 4:\nArtist Info" style="rounded=1;fillColor=#e3f2fd" vertex="1" parent="1"><mxGeometry x="880" y="100" width="120" height="60"/></mxCell><mxCell id="s7" value="7. Review\n&amp; Submit" style="rounded=1;fillColor=#e3f2fd" vertex="1" parent="1"><mxGeometry x="1040" y="100" width="120" height="60"/></mxCell><mxCell id="s8" value="8. Confirmation\nPending Status" style="rounded=1;fillColor=#4caf50;fontColor=#fff" vertex="1" parent="1"><mxGeometry x="1040" y="220" width="120" height="60"/></mxCell><mxCell id="s9" value="9. Admin Review\n(See Flow 3)" style="rounded=1;fillColor=#ff9800;fontColor=#fff" vertex="1" parent="1"><mxGeometry x="880" y="220" width="120" height="60"/></mxCell><mxCell id="end" value="SUCCESS\nApproved &amp; Live" style="ellipse;fillColor=#4caf50;fontColor=#fff;fontStyle=1" vertex="1" parent="1"><mxGeometry x="880" y="340" width="120" height="80"/></mxCell></root></mxGraphModel></diagram></mxfile>
